<svg xmlns="http://www.w3.org/2000/svg" viewBox="0 0 400 53.87"><defs><style>.cls-1{fill:#fff;}</style></defs><g id="レイヤー_2" data-name="レイヤー 2"><g id="レイヤー_3" data-name="レイヤー 3"><path class="cls-1" d="M25.26,2.31c.59,3.83,1,7.67,1.53,11.5l.66,5.75L28,25.31c.18,1.92.48,3.84.73,5.75a29.3,29.3,0,0,1,.2,5.77,47.66,47.66,0,0,1-.71,5.79,29.75,29.75,0,0,1-1.65,5.82l-.6,0a29.93,29.93,0,0,1-2-5.72A49.81,49.81,0,0,1,23,37a30,30,0,0,1-.13-5.76c.14-1.93.33-3.86.4-5.79l.24-5.77.32-5.78c.29-3.86.5-7.71.87-11.57Z"/><path class="cls-1" d="M4.67,18.58c1-1,3.5-.58,5.73.68s2,4.6,1.67,5.53c-.26.68-3.34,6.71-5.8,9C2.93,36.86,2.21,37.53.85,37S0,34.89.69,31.78,2.68,20.63,4.67,18.58Z"/><path class="cls-1" d="M38.87,20.6c-2,.42-1.26,2.74-.21,4.78s7.12,9.78,9.23,10.4,2.46,1.4,3.52-.44S49.38,23,48.24,21.8,45.54,19.2,38.87,20.6Z"/><path class="cls-1" d="M93.91,4.32c0,8.54-10.13,33.47-25.27,40"/><path class="cls-1" d="M100,26.79a.38.38,0,0,0-.43.45c.46,2.38,2.39,12,3.76,14.22,1.58,2.48,3,5.76,9.31,4.58s5.76-4.26,4.45-6.29S106.22,27.89,100,26.79Z"/><path class="cls-1" d="M161.94,12.87s.18,10.13-3.1,15.33-9.13,12.56-17.08,8.33S144.05,12,161.94,12.87Z"/><path class="cls-1" d="M166.89,12.84c4.34.2,16.73,4.54,13.7,19.49C177.49,47.66,163.87,48,163.87,48a56.59,56.59,0,0,0,5.77-17.57C170.78,21.6,166.89,12.84,166.89,12.84Z"/><path class="cls-1" d="M295,22.44c2.29-9.76,3.84-14.94.48-17.31-5.06-3.56-21.72,1.93-21.72,1.93A37,37,0,0,1,285.46,12C291.19,15.63,295,22.44,295,22.44Z"/><path class="cls-1" d="M295.34,26.05c-9.52-.61-34.61,4.57-25.21,16C278.61,52.32,293.53,35.81,295.34,26.05Z"/><path class="cls-1" d="M319.14,30.53a38,38,0,0,1-20.79,21.78c1.86-1.74,6.32-10.85,7.81-14.23s2.72-12.43,2.8-14,1-1.7,1.53-1.64a28.14,28.14,0,0,1,7.8,2.56C320.38,26.33,320.33,27.4,319.14,30.53Z"/><path class="cls-1" d="M288.22,26.33a49.56,49.56,0,0,1,9.2-.19,52.46,52.46,0,0,1,9.16,1.53,27.51,27.51,0,0,1,8.7,3.62l1.88,1.46a20.73,20.73,0,0,1,1.69,1.69c.26.29.54.58.79.88s.46.65.69,1c.43.68.85,1.34,1.21,2l-.23.2c-2.67-1.68-5-3.35-7.61-4.68a6.78,6.78,0,0,0-1-.51l-1-.5c-.64-.35-1.26-.72-1.93-1s-1.29-.69-2-1l-2-.85a50.55,50.55,0,0,0-8.62-2.34,56.21,56.21,0,0,0-9-1Z"/><path class="cls-1" d="M200,12.84S234.74,6.18,249.39,11"/><path class="cls-1" d="M227.06,22.73c.32,2.24-.41,6.07-1.09,8.72-.25,1-.83,4.14-4.4,4.87-3.78.78-8.62-.7-9.57-5.32a11.54,11.54,0,0,1,3.49-10.76c2.24-1.8,4.43-3.14,7.32-2S226.89,21.55,227.06,22.73Z"/><path class="cls-1" d="M224,51.31c14.42-12.56,15.7-39,5-51.31,0,0,.75,17.18.12,25.65C228.59,32.48,224,51.31,224,51.31Z"/><path class="cls-1" d="M346.59,16.68S360.21,11.86,369,19.5s8.12,21.47-4,34.37C365,53.87,369.49,23.21,346.59,16.68Z"/><path class="cls-1" d="M381.77,13.47s5.89,25.76,6.33,28.1.87,8.23,2.62,8.78,6.65.33,9-10.47S384.93,14,381.77,13.47Z"/><path class="cls-1" d="M363.64,5.83c-2.19.67-18.32,23.45-18.81,36.06"/></g></g></svg>