<svg xmlns="http://www.w3.org/2000/svg" viewBox="0 0 1000 134.67"><defs><style>.cls-1{fill:#fff;}</style></defs><g id="レイヤー_2" data-name="レイヤー 2"><g id="レイヤー_3" data-name="レイヤー 3"><path class="cls-1" d="M62.69,5.79c.76,9.6,1.36,19.2,2,28.8L65.64,49l.83,14.4c.27,4.8.64,9.6,1,14.4s.48,9.6.45,14.41-.2,9.63-.47,14.44-.67,9.64-1.39,14.47l-.6,0c-1-4.78-1.68-9.57-2.23-14.36s-1-9.59-1.31-14.39-.44-9.61-.39-14.42.16-9.62.15-14.43V49.1l.07-14.43c.13-9.62.16-19.24.36-28.86Z"/><path class="cls-1" d="M11.68,46.44C14.19,43.86,20.41,45,26,48.14S31.05,59.65,30.17,62c-.64,1.69-8.34,16.79-14.51,22.48C7.32,92.14,5.53,93.84,2.13,92.38S0,87.22,1.72,79.46,6.69,51.58,11.68,46.44Z"/><path class="cls-1" d="M97.18,51.5c-5,1-3.16,6.85-.52,12s17.79,24.44,23.07,26,6.15,3.52,8.78-1.1-5-31-7.91-33.83S113.86,48,97.18,51.5Z"/><path class="cls-1" d="M234.78,10.81c0,21.35-25.34,83.67-63.19,100"/><path class="cls-1" d="M250.07,67A1,1,0,0,0,249,68.11c1.15,5.94,6,30.08,9.41,35.53,3.93,6.22,7.53,14.41,23.26,11.46s14.41-10.64,11.14-15.72S265.56,69.71,250.07,67Z"/><path class="cls-1" d="M404.85,32.16s.45,25.34-7.76,38.35-22.82,31.39-42.68,20.83S360.12,29.88,404.85,32.16Z"/><path class="cls-1" d="M417.23,32.09c10.85.52,41.82,11.37,34.26,48.73C443.73,119.14,409.68,120,409.68,120S421.11,99.18,424.1,76C427,54,417.23,32.09,417.23,32.09Z"/><path class="cls-1" d="M737.39,56.09c5.7-24.4,9.59-37.35,1.19-43.26-12.65-8.91-54.31,4.82-54.31,4.82A92.4,92.4,0,0,1,713.64,30C728,39.07,737.39,56.09,737.39,56.09Z"/><path class="cls-1" d="M738.34,65.12c-23.79-1.52-86.51,11.43-63,39.94C696.53,130.79,733.84,89.52,738.34,65.12Z"/><path class="cls-1" d="M797.84,76.32c-15.88,41.75-52,54.46-52,54.46,4.65-4.35,15.8-27.13,19.53-35.59,3.59-8.13,6.8-31.06,7-35s2.42-4.26,3.82-4.12c4.91.5,16.31,4.4,19.52,6.42C801,65.82,800.82,68.5,797.84,76.32Z"/><path class="cls-1" d="M720.57,66.05a130.09,130.09,0,0,1,22.84.39,124.76,124.76,0,0,1,22.5,4.44c7.33,2.21,14.64,5,21.12,9.23A59,59,0,0,1,803.67,96l-.22.19c-1.47-1.23-2.75-2.61-4.26-3.76-.73-.61-1.43-1.24-2.17-1.82l-2.23-1.72a94.15,94.15,0,0,0-9.33-6.18c-3.23-1.86-6.49-3.67-9.89-5.23a89,89,0,0,0-10.4-4.27,122.65,122.65,0,0,0-21.95-5.24,128.86,128.86,0,0,0-22.63-1.58Z"/><path class="cls-1" d="M500.08,32.09s86.77-16.65,123.38-4.51"/><path class="cls-1" d="M567.65,56.84c.8,5.57-1,15.15-2.73,21.8-.63,2.47-2.07,10.34-11,12.17-9.45,1.94-21.56-1.76-23.93-13.3s3.1-22.43,8.72-26.92,11.07-7.85,18.31-5S567.22,53.87,567.65,56.84Z"/><path class="cls-1" d="M559.92,128.27C596,96.88,599.16,30.81,572.45,0c0,0,1.88,43,.3,64.14C571.48,81.19,559.92,128.27,559.92,128.27Z"/><path class="cls-1" d="M866.48,41.69s34-12,56,7.06,20.31,53.67-10,85.92C912.56,134.67,923.72,58,866.48,41.69Z"/><path class="cls-1" d="M954.42,33.68s14.73,64.39,15.82,70.24,2.19,20.59,6.55,22,16.64.81,22.64-26.19S962.33,35.05,954.42,33.68Z"/><path class="cls-1" d="M909.09,14.58c-5.47,1.68-45.79,58.63-47,90.13"/></g></g></svg>