<svg xmlns="http://www.w3.org/2000/svg" viewBox="0 0 734.88 538.32"><defs><style>.cls-1{fill:none;stroke:#fff;stroke-linecap:round;stroke-linejoin:round;stroke-width:10.4px;}.cls-2{fill:#fff;}</style></defs><g id="レイヤー_2" data-name="レイヤー 2"><g id="編集モード"><path class="cls-1" d="M304.58,264.77s77.67-35.85,159.07-2.27c0,0-76.22-11.17-116.34,21.91,0,0,33.48-6.23,60.26,4.25a43.73,43.73,0,0,0-31.32,14.42" transform="translate(-10.74)"/><ellipse class="cls-1" cx="373.38" cy="175.51" rx="20.04" ry="23.71"/><path class="cls-1" d="M344.06,227.88c-52.2-15.2-89.94-59.3-89.94-111.34S291.87,20.4,344.07,5.2" transform="translate(-10.74)"/><path class="cls-1" d="M424.18,5.21c52.19,15.2,89.94,59.3,89.94,111.33s-37.75,96.14-89.94,111.34" transform="translate(-10.74)"/><path class="cls-2" d="M10.74,463.17c0-46.55,26-74,63.44-74s63.45,27.59,63.45,74-26,75.15-63.45,75.15S10.74,509.72,10.74,463.17Zm100.67,0c0-32.29-14.61-51.83-37.23-51.83S37,430.88,37,463.17s14.61,53,37.22,53S111.41,495.47,111.41,463.17Z" transform="translate(-10.74)"/><path class="cls-2" d="M171,391.8h38.37c44.09,0,70.14,23.76,70.14,71.37s-26.05,72.51-68.82,72.51H171ZM207.68,515c28.95,0,45.58-16.45,45.58-51.83s-16.63-50.69-45.58-50.69H196.5V515Z" transform="translate(-10.74)"/><path class="cls-2" d="M312.88,391.8h86.6v21.48H338.4v36.87h51.75v21.47H338.4v42.59h63.28v21.47h-88.8Z" transform="translate(-10.74)"/><path class="cls-2" d="M435.64,391.8h26.23l44.7,80.88,14.87,30.71h.88c-1.23-14.87-3.25-33.09-3.25-49.11V391.8h24.28V535.68H517.13l-44.7-81L457.55,424.1h-.88c1.24,15.22,3.26,32.56,3.26,48.58v63H435.64Z" transform="translate(-10.74)"/><path class="cls-2" d="M584.36,391.8h25.52v65.39h.7L661.8,391.8h28.34L645.87,448l51.75,87.73H669.46L630.56,468l-20.68,25.7v42H584.36Z" transform="translate(-10.74)"/><path class="cls-2" d="M720.1,391.8h25.52V535.68H720.1Z" transform="translate(-10.74)"/></g></g></svg>