<svg width="18" height="19" viewBox="0 0 18 19" fill="none" xmlns="http://www.w3.org/2000/svg">
<g clip-path="url(#clip0)">
<path fill-rule="evenodd" clip-rule="evenodd" d="M2.10462 4.35148C1.87113 4.35148 1.66154 4.56107 1.66154 4.79456V16.3699C1.66154 16.6034 1.87113 16.813 2.10462 16.813H13.68C13.9253 16.813 14.1231 16.6194 14.1231 16.3699V8.9484H15.7846V16.3699C15.7846 17.5605 14.8193 18.4746 13.68 18.4746H2.10462C0.953487 18.4746 0 17.5211 0 16.3699V4.79456C0 3.64343 0.953486 2.68994 2.10462 2.68994H8.58462V4.35148H2.10462Z" fill="#FFB30B"/>
<path fill-rule="evenodd" clip-rule="evenodd" d="M17.3741 2.24465L9.69398 9.95742L8.5166 8.78503L16.1967 1.07227L17.3741 2.24465Z" fill="#FFB30B"/>
<path fill-rule="evenodd" clip-rule="evenodd" d="M10.7993 0.474609H17.0578C17.3557 0.474609 17.584 0.615187 17.7214 0.75255C17.8587 0.889913 17.9993 1.11826 17.9993 1.41615V7.39769H16.3378V2.13615H10.7993V0.474609Z" fill="#FFB30B"/>
</g>
<defs>
<clipPath id="clip0">
<rect width="18" height="18" fill="white" transform="translate(0 0.474609)"/>
</clipPath>
</defs>
</svg>
