<svg xmlns="http://www.w3.org/2000/svg" viewBox="0 0 100 100"><defs><style>.cls-1{fill:#fff;}</style></defs><g id="レイヤー_2" data-name="レイヤー 2"><g id="編集モード"><path class="cls-1" d="M72.25,55.56c-1.55,0-3.35.83-5.15,2.63V66.9a7.55,7.55,0,0,0,4.68,2c3.13,0,5.4-2.63,5.4-7C77.18,58.15,75.74,55.56,72.25,55.56ZM50,0a50,50,0,1,0,50,50A50,50,0,0,0,50,0Zm0,17.06L71.24,36H28.76ZM31.78,71.43c-5.11,0-6.76-2.91-6.76-7.23V55.92H20.08V53.69l5-.18.4-5.62H28v5.62h8.6v2.41H28v8.31C28,67.37,29,69,32.39,69a11.54,11.54,0,0,0,4.22-.79l.64,2.16A15.13,15.13,0,0,1,31.78,71.43Zm18.22,0c-4.61,0-8.64-3.34-8.64-9.14s4-9.21,8.64-9.21,8.64,3.34,8.64,9.21S54.61,71.43,50,71.43Zm22.28,0a8.21,8.21,0,0,1-5.22-2.26H67l.14,3.31v5.9H64.15V53.51h2.44l.26,2.23H67a9.18,9.18,0,0,1,6-2.66c4.72,0,7.24,3.49,7.24,8.92C80.24,67.94,76.49,71.43,72.28,71.43ZM50,55.52c-3.35,0-5.58,2.74-5.58,6.77S46.65,69,50,69s5.58-2.7,5.58-6.7S53.35,55.52,50,55.52Z"/></g></g></svg>