<svg width="30" height="31" viewBox="0 0 30 31" fill="none" xmlns="http://www.w3.org/2000/svg">
<g clip-path="url(#clip0)">
<path d="M15 3.02596C19.0075 3.02596 19.478 3.04383 21.0619 3.11528C22.5268 3.18079 23.3188 3.42493 23.8488 3.63335C24.5514 3.90727 25.0516 4.22882 25.5756 4.75284C26.0997 5.27686 26.4272 5.77706 26.6951 6.47971C26.8976 7.00969 27.1477 7.80167 27.2132 9.26653C27.2846 10.8505 27.3025 11.3209 27.3025 15.3285C27.3025 19.336 27.2846 19.8064 27.2132 21.3904C27.1477 22.8553 26.9035 23.6472 26.6951 24.1772C26.4212 24.8799 26.0997 25.3801 25.5756 25.9041C25.0516 26.4281 24.5514 26.7556 23.8488 27.0236C23.3188 27.226 22.5268 27.4761 21.0619 27.5416C19.478 27.6131 19.0075 27.631 15 27.631C10.9925 27.631 10.522 27.6131 8.93807 27.5416C7.47321 27.4761 6.68122 27.232 6.15125 27.0236C5.44859 26.7497 4.94839 26.4281 4.42438 25.9041C3.90036 25.3801 3.57285 24.8799 3.30488 24.1772C3.10242 23.6472 2.85232 22.8553 2.78682 21.3904C2.71536 19.8064 2.6975 19.336 2.6975 15.3285C2.6975 11.3209 2.71536 10.8505 2.78682 9.26653C2.85232 7.80167 3.09647 7.00969 3.30488 6.47971C3.5788 5.77706 3.90036 5.27686 4.42438 4.75284C4.94839 4.22882 5.44859 3.90131 6.15125 3.63335C6.68122 3.43089 7.47321 3.18079 8.93807 3.11528C10.522 3.03787 10.9984 3.02596 15 3.02596ZM15 0.32251C10.927 0.32251 10.4149 0.340374 8.81302 0.411831C7.21715 0.483288 6.12743 0.739342 5.17467 1.10854C4.18619 1.48964 3.35252 2.0077 2.51886 2.84137C1.68519 3.67503 1.17308 4.51465 0.786026 5.49718C0.416832 6.44994 0.160778 7.53966 0.0893212 9.14149C0.0178642 10.7374 0 11.2495 0 15.3225C0 19.3956 0.0178642 19.9077 0.0893212 21.5095C0.160778 23.1054 0.416832 24.1951 0.786026 25.1538C1.16713 26.1423 1.68519 26.9759 2.51886 27.8096C3.35252 28.6433 4.19214 29.1554 5.17467 29.5424C6.12743 29.9116 7.21715 30.1677 8.81898 30.2391C10.4208 30.3106 10.927 30.3285 15.006 30.3285C19.085 30.3285 19.5911 30.3106 21.1929 30.2391C22.7888 30.1677 23.8785 29.9116 24.8372 29.5424C25.8257 29.1613 26.6594 28.6433 27.4931 27.8096C28.3267 26.9759 28.8388 26.1363 29.2259 25.1538C29.5951 24.201 29.8511 23.1113 29.9226 21.5095C29.9941 19.9077 30.0119 19.4015 30.0119 15.3225C30.0119 11.2435 29.9941 10.7374 29.9226 9.13553C29.8511 7.53966 29.5951 6.44994 29.2259 5.49123C28.8448 4.50274 28.3267 3.66908 27.4931 2.83541C26.6594 2.00175 25.8198 1.48964 24.8372 1.10258C23.8845 0.733387 22.7948 0.477333 21.1929 0.405876C19.5852 0.340374 19.073 0.32251 15 0.32251Z" fill="white"/>
<path d="M15.0004 7.62305C10.7487 7.62305 7.29492 11.0708 7.29492 15.3285C7.29492 19.5861 10.7427 23.0339 15.0004 23.0339C19.258 23.0339 22.7058 19.5861 22.7058 15.3285C22.7058 11.0708 19.258 7.62305 15.0004 7.62305ZM15.0004 20.3245C12.2374 20.3245 9.99838 18.0855 9.99838 15.3225C9.99838 12.5595 12.2374 10.3205 15.0004 10.3205C17.7634 10.3205 20.0023 12.5595 20.0023 15.3225C20.0023 18.0855 17.7634 20.3245 15.0004 20.3245Z" fill="white"/>
<path d="M23.0093 9.1118C24.0025 9.1118 24.8076 8.30666 24.8076 7.31347C24.8076 6.32028 24.0025 5.51514 23.0093 5.51514C22.0161 5.51514 21.2109 6.32028 21.2109 7.31347C21.2109 8.30666 22.0161 9.1118 23.0093 9.1118Z" fill="white"/>
</g>
<defs>
<clipPath id="clip0">
<rect width="30" height="30" fill="white" transform="translate(0 0.32251)"/>
</clipPath>
</defs>
</svg>
