<svg width="200" height="254" viewBox="0 0 200 254" fill="none" xmlns="http://www.w3.org/2000/svg">
<path d="M95.3055 185.391C94.7025 185.388 94.1129 185.211 93.6083 184.881C93.1038 184.551 92.7057 184.081 92.4624 183.529C92.2191 182.978 92.141 182.367 92.2375 181.772C92.334 181.176 92.601 180.622 93.0062 180.175C95.4115 177.529 98.2761 175.34 101.461 173.714C93.8387 172.802 86.1266 172.951 78.5451 174.157C77.8672 174.279 77.168 174.174 76.5564 173.857C75.9448 173.54 75.4552 173.03 75.164 172.406C74.8728 171.782 74.7963 171.079 74.9464 170.407C75.0966 169.735 75.465 169.131 75.9942 168.69C86.4792 160.043 101.832 155.097 121.641 153.995H121.886C108.805 151.99 95.4895 152.047 82.4253 154.163C65.2816 156.9 53.8025 162.115 53.6828 162.169C53.3095 162.357 52.9023 162.467 52.4854 162.494C52.0684 162.521 51.6504 162.464 51.2561 162.326C50.8617 162.188 50.4992 161.972 50.1901 161.691C49.881 161.41 49.6315 161.069 49.4567 160.69C49.2819 160.311 49.1852 159.9 49.1724 159.482C49.1596 159.065 49.2309 158.649 49.3822 158.259C49.5335 157.87 49.7616 157.515 50.0529 157.215C50.3442 156.916 50.6929 156.678 51.078 156.516C51.563 156.289 63.2936 150.936 81.2337 148.049C97.7966 145.385 122.964 144.457 148.821 155.109C149.522 155.4 150.093 155.936 150.427 156.618C150.76 157.3 150.833 158.081 150.631 158.813C150.43 159.545 149.968 160.178 149.332 160.593C148.697 161.008 147.931 161.177 147.18 161.067C146.803 161.013 114.425 156.474 90.8924 166.882C98.078 166.81 107.06 167.564 115.186 170.75C115.855 171.028 116.406 171.531 116.744 172.172C117.082 172.814 117.186 173.552 117.037 174.262C116.889 174.971 116.498 175.606 115.932 176.058C115.365 176.51 114.659 176.751 113.934 176.738C110.837 176.839 107.792 177.569 104.985 178.882C102.178 180.196 99.6674 182.066 97.6049 184.379C97.3135 184.698 96.9583 184.954 96.5623 185.128C96.1663 185.302 95.7382 185.392 95.3055 185.391Z" fill="#FFB30B"/>
<path d="M100 123.187C91.6647 123.187 84.8862 115.403 84.8862 105.882C84.8862 96.3607 91.6767 88.5703 100 88.5703C108.323 88.5703 115.114 96.3547 115.114 105.882C115.114 115.409 108.347 123.187 100 123.187ZM100 94.7979C95.0958 94.7979 91.1138 99.7679 91.1138 105.882C91.1138 111.995 95.1078 116.954 100 116.954C104.892 116.954 108.886 111.983 108.886 105.876C108.886 99.7679 104.91 94.7979 100 94.7979Z" fill="#FFB30B"/>
<path d="M76.0482 140.36C75.7524 140.359 75.4581 140.317 75.174 140.235C59.0183 135.516 45.1201 126.534 34.9704 114.157C24.5512 101.48 19.0542 86.4143 19.0542 70.576C19.0542 54.7377 24.5512 39.6598 34.9704 26.9891C45.1261 14.6239 59.0243 5.60591 75.162 0.911302C75.5552 0.796887 75.967 0.761034 76.3741 0.805792C76.7811 0.850549 77.1753 0.97504 77.5343 1.17216C77.8932 1.36927 78.2098 1.63515 78.4659 1.95462C78.7221 2.27408 78.9128 2.64088 79.0273 3.03406C79.1417 3.42724 79.1775 3.8391 79.1328 4.24614C79.088 4.65317 78.9635 5.0474 78.7664 5.40633C78.5693 5.76525 78.3034 6.08184 77.9839 6.338C77.6645 6.59417 77.2977 6.78491 76.9045 6.89933C46.0243 15.8814 25.2817 41.4802 25.2817 70.588C25.2817 99.6957 46.0243 125.277 76.8925 134.265C77.6158 134.471 78.2398 134.933 78.6492 135.563C79.0587 136.194 79.226 136.952 79.1201 137.697C79.0143 138.442 78.6424 139.123 78.0734 139.615C77.5043 140.106 76.7764 140.376 76.0243 140.372L76.0482 140.36Z" fill="#FFB30B"/>
<path d="M124 140.361C123.248 140.364 122.52 140.094 121.951 139.603C121.382 139.111 121.01 138.43 120.904 137.685C120.798 136.94 120.965 136.183 121.375 135.552C121.784 134.921 122.408 134.459 123.132 134.253C154 125.271 174.742 99.6719 174.742 70.5761C174.742 41.4803 154 15.8875 123.132 6.89347C122.738 6.77906 122.372 6.58832 122.052 6.33215C121.733 6.07598 121.467 5.7594 121.27 5.40047C120.872 4.6756 120.778 3.82226 121.009 3.0282C121.24 2.23414 121.777 1.5644 122.502 1.1663C123.227 0.768208 124.08 0.674376 124.874 0.905448C141.006 5.60006 154.904 14.618 165.054 26.9773C175.449 39.6659 180.97 54.7378 180.97 70.5761C180.97 86.4144 175.467 101.48 165.054 114.157C154.904 126.516 141.006 135.534 124.874 140.235C124.59 140.317 124.296 140.359 124 140.361V140.361Z" fill="#FFB30B"/>
<path d="M0 233.313C0 220.642 7.06587 213.169 17.2695 213.169C27.4731 213.169 34.5389 220.678 34.5389 233.313C34.5389 245.947 27.4731 253.774 17.2695 253.774C7.06587 253.774 0 245.983 0 233.313ZM27.4012 233.313C27.4012 224.522 23.4252 219.205 17.2695 219.205C11.1138 219.205 7.13773 224.522 7.13773 233.313C7.13773 242.103 11.1138 247.732 17.2695 247.732C23.4252 247.732 27.4012 242.103 27.4012 233.313Z" fill="#FFB30B"/>
<path d="M43.6167 213.887H54.0598C66.0359 213.887 73.1496 220.354 73.1496 233.312C73.1496 246.27 66.0598 253.073 54.4191 253.073H43.6407L43.6167 213.887ZM53.6047 247.42C61.485 247.42 66.0119 242.935 66.0119 233.306C66.0119 223.678 61.485 219.534 53.6047 219.534H50.5628V247.444L53.6047 247.42Z" fill="#FFB30B"/>
<path d="M82.2393 213.887H105.808V219.732H89.1854V229.767H103.269V235.612H89.1854V247.205H106.407V253.055H82.2393V213.887Z" fill="#FFB30B"/>
<path d="M115.652 213.887H122.79L134.958 235.899L139.006 244.282H139.245C138.91 240.235 138.359 235.3 138.359 230.917V213.911H144.946V253.079H137.832L125.664 231.025L121.616 222.702H121.377C121.712 226.845 122.263 231.564 122.263 235.923V253.079H115.676L115.652 213.887Z" fill="#FFB30B"/>
<path d="M156.132 213.887H163.078V231.684H163.27L177.21 213.887H184.922L172.874 229.169L186.958 253.055H179.294L168.707 234.63L163.078 241.624V253.055H156.132V213.887Z" fill="#FFB30B"/>
<path d="M193.078 213.887H200V253.055H193.054L193.078 213.887Z" fill="#FFB30B"/>
</svg>
