<svg xmlns="http://www.w3.org/2000/svg" viewBox="0 0 734.88 149.16"><defs><style>.cls-1{fill:#ffb30b;}</style></defs><g id="レイヤー_2" data-name="レイヤー 2"><g id="レイヤー_1-2" data-name="レイヤー 1"><path class="cls-1" d="M10.74,110.09c0-46.55,26-74,63.44-74s63.45,27.59,63.45,74-26,75.15-63.45,75.15S10.74,156.64,10.74,110.09Zm100.67,0c0-32.3-14.61-51.83-37.23-51.83S37,77.79,37,110.09s14.61,53,37.22,53S111.41,142.38,111.41,110.09Z" transform="translate(-10.74 -36.08)"/><path class="cls-1" d="M171,38.72h38.37c44.09,0,70.14,23.76,70.14,71.37s-26.05,72.51-68.82,72.51H171Zm36.7,123.2c28.95,0,45.58-16.46,45.58-51.83S236.63,59.4,207.68,59.4H196.5V161.92Z" transform="translate(-10.74 -36.08)"/><path class="cls-1" d="M312.88,38.72h86.6V60.19H338.4V97.06h51.75v21.48H338.4v42.59h63.28V182.6h-88.8Z" transform="translate(-10.74 -36.08)"/><path class="cls-1" d="M435.64,38.72h26.23l44.7,80.87,14.87,30.71h.88c-1.23-14.87-3.25-33.08-3.25-49.1V38.72h24.29V182.6H517.13l-44.7-81L457.55,71h-.88c1.24,15.22,3.26,32.56,3.26,48.57v63H435.64Z" transform="translate(-10.74 -36.08)"/><path class="cls-1" d="M584.36,38.72h25.52V104.1h.7L661.8,38.72h28.34L645.87,94.86l51.75,87.74H669.46l-38.9-67.67-20.68,25.69v42H584.36Z" transform="translate(-10.74 -36.08)"/><path class="cls-1" d="M720.1,38.72h25.52V182.6H720.1Z" transform="translate(-10.74 -36.08)"/></g></g></svg>