<svg width="30" height="31" viewBox="0 0 30 31" fill="none" xmlns="http://www.w3.org/2000/svg">
<path d="M20 6.32251L15 1.32251L10 6.32251" stroke="white" stroke-width="1.5" stroke-linecap="round" stroke-linejoin="round"/>
<path d="M6.336 15.5765C6.336 15.1265 6.426 15.0365 6.876 15.0365H7.56C8.37 15.0365 9.684 15.0725 10.044 15.0725C10.368 15.0725 10.44 14.9645 10.44 14.5505V14.0645C10.44 13.6325 10.368 13.5245 9.99 13.5245C9.756 13.5245 8.298 13.5605 7.452 13.5605H3.672C2.826 13.5605 1.386 13.5245 1.152 13.5245C0.774 13.5245 0.702 13.6325 0.702 14.0645V14.5505C0.702 14.9645 0.774 15.0725 1.098 15.0725C1.458 15.0725 2.754 15.0365 3.582 15.0365H4.23C4.68 15.0365 4.77 15.1265 4.77 15.5765V22.4345C4.77 23.0645 4.77 23.9825 4.734 24.6665C4.716 25.1345 4.716 25.4945 4.716 25.5845C4.716 25.9625 4.824 26.0345 5.256 26.0345H5.85C6.282 26.0345 6.39 25.9625 6.39 25.5845C6.39 25.4945 6.39 25.1705 6.372 24.7385C6.354 24.0365 6.336 23.0825 6.336 22.4345V15.5765ZM14.0476 17.0345C11.2036 17.0345 9.52959 19.0505 9.52959 21.8045C9.52959 24.5045 11.3476 26.1425 13.7416 26.1425C16.3696 26.1425 18.2416 24.3425 18.2416 21.4085C18.2416 18.7085 16.4056 17.0345 14.0476 17.0345ZM13.9756 18.5285C15.4876 18.5285 16.6576 19.6445 16.6576 21.5165C16.6576 23.5145 15.4336 24.7925 13.7956 24.7925C12.2656 24.7925 11.1316 23.6585 11.1316 21.8225C11.1316 19.9505 12.1216 18.5285 13.9756 18.5285ZM22.0774 26.5025C22.0774 26.1605 22.1134 26.0525 22.3474 26.0525C22.4194 26.0525 22.4914 26.0525 22.5994 26.0705C22.8694 26.1245 23.1394 26.1425 23.4094 26.1425C25.7674 26.1425 28.3594 24.5585 28.3594 21.0845C28.3594 18.6365 26.9374 17.0345 24.7414 17.0345C23.8234 17.0345 22.9954 17.3765 22.3654 17.8445C22.2394 17.9345 22.1494 17.9705 22.0954 17.9705C22.0054 17.9705 21.9694 17.8625 21.9694 17.6285C21.9694 17.2145 21.8794 17.1425 21.4654 17.1425H21.0514C20.6194 17.1425 20.5114 17.2145 20.5114 17.5925C20.5114 17.8265 20.5474 19.1225 20.5474 19.9505V26.6465C20.5474 27.4565 20.5114 28.7525 20.5114 28.9865C20.5114 29.3645 20.6194 29.4365 21.0514 29.4365H21.5734C22.0054 29.4365 22.1134 29.3645 22.1134 28.9865C22.1134 28.7525 22.0774 27.4565 22.0774 26.6465V26.5025ZM23.4994 24.7925C23.1574 24.7925 22.8514 24.7745 22.5994 24.7205C22.1854 24.6305 22.0774 24.5045 22.0774 24.0905V20.0045C22.0774 19.5905 22.1674 19.4285 22.4914 19.1765C23.0134 18.7805 23.6614 18.5285 24.3634 18.5285C25.7494 18.5285 26.7754 19.5545 26.7754 21.2825C26.7754 23.5505 25.1014 24.7925 23.4994 24.7925Z" fill="white"/>
</svg>
