<svg width="32" height="27" viewBox="0 0 32 27" fill="none" xmlns="http://www.w3.org/2000/svg">
<g clip-path="url(#clip0)">
<path d="M28.6386 6.61797C28.6579 6.89797 28.6579 7.17797 28.6579 7.46055C28.6579 16.0709 22.1031 26.0012 10.1173 26.0012V25.996C6.57665 26.0012 3.10955 24.987 0.128906 23.0747C0.643745 23.1367 1.16116 23.1676 1.67987 23.1689C4.61407 23.1715 7.46439 22.187 9.77278 20.3741C6.98439 20.3212 4.53923 18.5031 3.68503 15.8489C4.66181 16.0373 5.66826 15.9986 6.62697 15.7367C3.58697 15.1225 1.39987 12.4515 1.39987 9.34958C1.39987 9.3212 1.39987 9.2941 1.39987 9.267C2.30568 9.77152 3.31987 10.0515 4.35729 10.0825C1.49407 8.16894 0.611487 4.35991 2.34052 1.38184C5.64891 5.45281 10.5302 7.92765 15.7702 8.18958C15.245 5.92636 15.9625 3.55474 17.6554 1.96378C20.2799 -0.50332 24.4076 -0.376869 26.8747 2.24636C28.3341 1.95862 29.7328 1.42313 31.0128 0.664422C30.5263 2.17281 29.5083 3.4541 28.1483 4.26829C29.4399 4.11604 30.7018 3.77023 31.8902 3.24249C31.0154 4.55345 29.9134 5.69539 28.6386 6.61797Z" fill="white"/>
</g>
<defs>
<clipPath id="clip0">
<rect width="32" height="26.3226" fill="white"/>
</clipPath>
</defs>
</svg>
